<svg xmlns="http://www.w3.org/2000/svg"><path d="M2.1,3.431c0.201-0.289,0.522-0.154,0.599,0.207c0.109,0.517,0.626,0.586,0.626,0.586S2.95,4.566,2.395,4.303   C2.03,4.129,1.963,3.627,2.1,3.431z"></path><path d="M2.875,3.441c-0.062-0.346,0.26-0.479,0.57-0.277c0.442,0.288,0.857-0.028,0.857-0.028S4.279,3.644,3.7,3.849   C3.319,3.985,2.917,3.676,2.875,3.441z"></path><path d="M3.431,2.9C3.143,2.699,3.277,2.378,3.638,2.302c0.517-0.109,0.586-0.626,0.586-0.626s0.342,0.375,0.078,0.93   C4.129,2.971,3.627,3.037,3.431,2.9z"></path><path d="M3.441,2.125c-0.346,0.062-0.479-0.261-0.277-0.57c0.288-0.442-0.028-0.857-0.028-0.857S3.644,0.721,3.85,1.3   C3.985,1.681,3.677,2.083,3.441,2.125z"></path><path d="M2.9,1.569C2.699,1.858,2.378,1.723,2.302,1.362C2.193,0.846,1.676,0.775,1.676,0.775s0.375-0.341,0.93-0.078   C2.971,0.871,3.037,1.374,2.9,1.569z"></path><path d="M2.125,1.559c0.062,0.347-0.261,0.479-0.57,0.277C1.113,1.547,0.698,1.864,0.698,1.864S0.721,1.357,1.3,1.151   C1.681,1.016,2.083,1.324,2.125,1.559z"></path><path d="M1.569,2.1c0.289,0.201,0.154,0.522-0.207,0.599C0.845,2.807,0.775,3.325,0.775,3.325S0.434,2.95,0.697,2.395   C0.871,2.03,1.374,1.963,1.569,2.1z"></path><path d="M1.559,2.875c0.347-0.062,0.479,0.261,0.277,0.569C1.547,3.887,1.864,4.303,1.864,4.303S1.356,4.279,1.151,3.7   C1.015,3.32,1.324,2.917,1.559,2.875z"></path></svg>