<svg width="61" height="60" viewBox="0 0 61 60" fill="none" xmlns="http://www.w3.org/2000/svg">
<path d="M27.2982 59.9409C27.2793 59.9106 26.925 59.8779 26.5109 59.8683C26.0968 59.8584 25.3636 59.785 24.8817 59.7051C20.6589 59.0045 16.3908 57.4796 13.5471 55.6556C13.0216 55.3185 12.9015 55.1884 12.9879 55.0493C13.0507 54.9482 13.2595 54.9996 14.4765 55.4155C15.0588 55.6145 15.9624 55.8695 16.4845 55.9822C17.3677 56.1727 17.548 56.1869 19.0767 56.187C21.3702 56.187 22.1558 56.0577 24.6543 55.269C29.4131 53.7666 30.6037 53.76 35.331 55.2091C38.0461 56.0415 39.114 56.2254 41.2275 56.2247C42.7653 56.2243 44.2106 55.9545 45.9479 55.3432C46.4096 55.1808 46.874 55.0317 46.9796 55.012C47.1862 54.9735 47.2865 55.0604 47.2237 55.2232C47.1278 55.472 44.6998 56.8218 43.2096 57.4548C40.3035 58.6891 35.7967 59.8322 33.7166 59.8625C33.2943 59.8687 32.9303 59.9033 32.9078 59.9397C32.8581 60.0193 27.3475 60.0205 27.2982 59.9409ZM16.4114 54.0733C12.6281 53.5173 9.34819 51.8135 6.55184 48.9517C5.02858 47.3927 3.90343 45.7769 2.769 43.5188C1.28466 40.5645 0.227051 36.7539 0.0457442 33.7061C-0.0161761 32.666 -0.0148618 26.8854 0.0474237 25.897C0.174404 23.8829 0.913944 20.9255 1.93154 18.3621C2.32198 17.3785 3.35739 15.2343 3.85297 14.3832C4.00412 14.1235 4.16564 13.8457 4.21193 13.7658C5.20989 12.0402 7.1273 9.62045 8.82135 7.94873C10.3569 6.43349 11.8282 5.24993 13.6001 4.1048C14.1423 3.75444 14.668 3.41201 14.7684 3.3438C15.1396 3.09173 17.3875 1.95851 18.2089 1.60932C20.0296 0.835313 22.1102 0.156835 22.7301 0.135042C22.9327 0.12785 23.1154 0.0945802 23.1363 0.0610195C23.1571 0.0274588 23.346 0 23.5559 0C23.8789 0 23.9393 0.0212842 23.9482 0.138238C23.9566 0.251124 23.8419 0.312434 23.3247 0.471666C21.1589 1.1383 18.6722 2.31692 16.2741 3.81372C14.4724 4.93822 12.3603 6.69711 10.6137 8.52755C6.1392 13.217 3.53556 18.857 2.7433 25.5772C2.58886 26.8873 2.56849 30.3642 2.70817 31.5993C3.56498 39.1805 6.85691 45.1894 11.7382 48.0823C13.5604 49.1622 15.562 49.7334 17.7988 49.8119C19.6116 49.8753 20.771 49.6384 24.05 48.5345C27.1333 47.4966 27.9682 47.2771 29.3187 47.1498C30.2201 47.0648 31.2871 47.1418 32.3331 47.3672C32.9563 47.5016 35.5532 48.3078 36.9663 48.8057C39.1406 49.5719 40.7517 49.8698 42.4062 49.8119C45.1173 49.7169 47.49 48.8951 49.6471 47.304C53.8773 44.1837 56.7336 38.4675 57.4946 31.5995C57.6185 30.4813 57.6196 27.0844 57.4964 25.9334C56.9531 20.8555 55.4484 16.5486 52.8397 12.6036C50.2795 8.73196 46.6515 5.32707 42.6253 3.01741C40.9759 2.07132 38.4765 0.964181 36.875 0.470577C36.3682 0.314396 36.2361 0.245386 36.2361 0.136858C36.2361 0.0214295 36.2923 0.000145285 36.5968 0.000145285C36.7953 0.000145285 36.9743 0.0271682 36.9949 0.0602204C37.0153 0.0932 37.2187 0.127778 37.4467 0.136931C38.4697 0.178119 41.7309 1.38529 43.9517 2.54488C51.0485 6.25043 56.2358 12.3048 58.851 19.9349C59.532 21.9221 60.0938 24.4856 60.1177 25.7154C60.1252 26.0964 60.168 26.4525 60.2135 26.5103C60.278 26.5922 60.2745 26.6022 60.1974 26.556C60.1174 26.5082 60.1145 26.5263 60.1818 26.6514C60.2832 26.8397 60.2442 32.1766 60.1285 33.9603C60.0418 35.2981 59.8063 36.635 59.3482 38.3914C57.8156 44.2664 54.6386 48.9458 50.3287 51.6766C48.7934 52.6494 46.5336 53.5596 44.7733 53.9143C44.0367 54.0627 43.7311 54.0822 42.1506 54.0822C39.767 54.0822 38.6105 53.8865 35.3598 52.9326C31.9425 51.9298 31.4969 51.837 30.1024 51.837C28.7077 51.837 28.2611 51.9301 24.845 52.9327C21.7096 53.8529 20.6123 54.0466 18.3463 54.0802C17.4026 54.0941 16.5318 54.0911 16.4114 54.0733ZM16.667 47.3661C15.2056 47.2073 14.0221 46.8565 12.6144 46.1651C10.7104 45.2298 9.10656 43.7643 7.7246 41.6967C7.07108 40.7189 6.497 39.6746 6.54497 39.5504C6.62383 39.3459 6.90124 39.4466 7.31876 39.8311C8.23136 40.6715 10.3232 42.2052 10.5571 42.2052C10.598 42.2052 10.6833 42.2517 10.7467 42.3082C10.9025 42.4474 12.122 42.9759 12.797 43.1967C14.151 43.6397 15.8988 43.8436 17.3607 43.729C19.0764 43.5946 20.2985 43.3071 22.2164 42.5865C25.2392 41.4509 26.8528 41.0548 29.1033 40.8961C30.7786 40.7779 32.7436 40.9664 34.5202 41.4159C35.3789 41.6332 36.3321 41.944 37.7696 42.4754C39.3266 43.0512 40.1931 43.3104 41.2091 43.5046C44.6155 44.1555 47.7468 43.5563 50.5479 41.7174C51.3967 41.1602 52.618 40.2012 53.0637 39.7422C53.3615 39.4354 53.6564 39.3517 53.7338 39.5522C53.8088 39.7469 52.7182 41.5776 51.8718 42.6773C51.4059 43.2828 50.3912 44.3224 49.7812 44.8193C48.307 46.0202 46.4113 46.8889 44.4508 47.2618C43.5443 47.4343 41.3699 47.4359 40.3617 47.2648C39.2437 47.0752 38.0727 46.7437 36.7473 46.2419C33.8056 45.1281 32.3211 44.8049 30.139 44.8028C29.2005 44.802 28.6787 44.8394 27.9995 44.9559C26.3796 45.2341 25.7396 45.4238 22.9692 46.4478C21.9598 46.8209 20.9629 47.0866 19.9518 47.2518C19.1142 47.3889 17.4183 47.4479 16.667 47.3661Z" fill="white"/>
<path d="M25.0286 35.5078L17.5076 17.6227C16.9737 16.3915 16.4399 15.5382 15.906 15.063C15.3721 14.5878 14.7569 14.307 14.0605 14.2206V13.5726C14.1534 13.5726 14.3855 13.5618 14.7569 13.5402C15.1051 13.5186 15.3605 13.5078 15.5229 13.5078C16.3354 13.5078 17.1711 13.5942 18.0299 13.767C18.8888 13.9182 19.7012 14.2854 20.4673 14.8686C21.2333 15.4518 21.8832 16.3699 22.4171 17.6227L27.1177 28.8009L30.2514 20.5063L29.0328 17.6227C28.4989 16.3915 27.9185 15.5382 27.2918 15.063C26.6883 14.5878 26.0383 14.307 25.3419 14.2206V13.5726C25.4348 13.5726 25.6437 13.5618 25.9687 13.5402C26.2937 13.5186 26.5374 13.5078 26.6999 13.5078C27.5123 13.5078 28.348 13.5942 29.2068 13.767C30.0657 13.9398 30.8782 14.3178 31.6442 14.901C32.4102 15.4626 33.0602 16.3699 33.5941 17.6227L38.5732 29.4165L44.5272 13.8318H46.1986L37.9464 35.5078H36.5537L31.1915 22.8068L26.4213 35.5078H25.0286Z" fill="white"/>
</svg>
